<svg version="1" xmlns="http://www.w3.org/2000/svg" width="1206.667" height="1206.667" viewBox="0 0 905.000000 905.000000"><path d="M712.8 72.2c-1.8 1.3-4.9 3.1-6.9 4.1-1.9 1-4.3 3-5.3 4.5s-3.7 3.9-6 5.4c-7.7 4.9-11.7 3.8-12.1-3.4 0-.3-.3-1-.7-1.4-.5-.4-.8-1.5-.8-2.4 0-4.7-7.9-7.5-13.1-4.7-9.1 4.8-10.5 6.6-10.8 12.9l-.1 3.3-2.4-2.8c-1.4-1.6-2.6-3.2-2.8-3.6-.8-1.8-15-11-17.7-11.4-2.1-.4-4.7.3-7.9 1.9-2.6 1.3-5.4 2.4-6.3 2.4-1 0-3.1 1.7-4.8 3.7-7.5 9.1-11.4 13.3-12.3 13.3-.5 0-2.4-1.6-4.1-3.7-6.2-7-9.8-10.3-12.1-10.9-5.1-1.3-11.5 1.2-14.6 5.7-.8 1.2-2 2.7-2.5 3.3-.6.6-2.2 3.5-3.6 6.4l-2.6 5.4-3.1-3.6c-1.7-2-3.6-3.6-4.2-3.6-.5 0-1-.4-1-.9s-1.3-1.2-3-1.6c-1.6-.3-3.9-1.4-5.2-2.4-4.1-3.2-8.1-3.9-15-2.6-3.5.7-8.7 3.7-12 6.9-5.8 5.7-11.4 12-13.2 14.8-1 1.5-2.2 2.6-2.6 2.3-1.1-.7-5-8.8-5-10.3 0-.7-.3-1.2-.7-1.2-.5 0-1.5-1.3-2.5-2.9-2.4-4.4-6.7-6.3-11.2-5-2.8.8-4.7 2.4-8.1 7.1-2.5 3.4-4.8 7.7-5.1 9.5l-.6 3.2-6.2-4.3c-11.1-7.9-20.3-11.7-25.6-10.3-2.8.7-7 3-7 3.8 0 .5-1.9 1.8-4.2 3-3.9 2-5.8 3.8-10.7 9.9-1 1.4-2.1 2.3-2.3 2-.7-.9-8.3-12.1-9.8-14.5-3.4-5.5-8.9-5.6-11.1-.2-1.5 3.4-1.5 3.9-2.4 10.7-1.2 8.5-2.5 10.2-4.6 5.6-.6-1.3-2.2-3-3.5-3.7-1.3-.7-2.4-1.6-2.4-2.1 0-.4-.6-.8-1.4-.8-.8 0-3.8-1.6-6.7-3.6-3.9-2.6-6.4-3.6-8.9-3.5-1.9.1-7.2.3-11.7.4-8.1.2-8.3.2-12.3 4.2-3.7 3.6-6.8 8.1-7.1 10.2-.2 1.2-.4 1.8-4.4 13.3-2 5.8-3.8 12.1-4 14-.2 1.9-.6 6-1 9-.7 6-.8 59.1-.1 65.5.4 4 1.6 12.1 2 14 1.8 7.3 2.8 25.5 1.7 27.4-1.1 1.6-5.4-1.8-4.6-3.6.4-1.3.3-1.4-.9-.4-1 .8-1.6.9-2.1.1-.3-.5-2.1-1-3.8-1l-3.2-.1 2.8-1.5c1.5-.8 2.7-1.9 2.7-2.4 0-.6 1.3-1 2.9-1 1.7 0 3.2-.4 3.5-.8 1.1-1.8-10.8-.9-14.2 1-1.9 1-4.1 1.7-4.8 1.4-.7-.3-1.6-.1-2 .5-.3.6-1.1.8-1.7.6-1.2-.4-8.7 2.9-9.7 4.2-.3.4-2.1 1.7-4.2 2.9-2 1.2-4.7 3.6-6 5.3-1.2 1.6-3.1 4-4 5.1-1 1.2-1.8 2.4-1.8 2.7 0 .3-1 1.7-2.3 3.1-3.2 3.5-7.9 10.7-10.2 15.7-1.1 2.4-2.3 4.3-2.7 4.3-.5 0-.8.6-.8 1.2 0 .7-1.4 3.3-3 5.8s-4.9 8.7-7.1 13.9c-2.3 5.2-5.9 12.1-8 15.4-2.2 3.3-3.9 6.6-3.9 7.4 0 .7-.4 1.3-1 1.3-.5 0-1 .5-1 1.1 0 2-5.2 12.9-6.2 12.9-.5 0-.7.3-.5.8.3.4-.2 2.3-1.2 4.2-.9 1.9-2.5 6.2-3.5 9.5s-3.4 10-5.3 14.8c-1.9 4.8-3.6 9.6-3.8 10.6-.5 2.5-10.1 30.2-12.7 36.6-1.1 2.7-3 6.5-4.3 8.5-3.9 6.2-16.4 31.4-16.9 34-.8 4.8-7.1 18.9-9.1 20.2-.5.4-.7.8-.2.8.4 0-.2 1.7-1.3 3.7-1.1 2.1-2 4.1-2 4.6s-1.1 3.3-2.5 6.2c-2.5 5.6-9.1 24.5-9.9 28.7-.7 3.8-2.7 8.8-3.5 8.8-.4 0-.3-2.3.3-5.1.8-4 .8-5.2-.4-5.9-.7-.5-1.5-2.1-1.7-3.7-.5-5-1.3-7.5-4.8-14.3-1.2-2.5-3.1-6.8-4.1-9.5-2.8-7.8-11.7-19.5-14.8-19.5-.5 0-1.7-.7-2.6-1.5-3.2-2.9-13-8.3-16.2-9-1.8-.4-4-1.3-4.8-2-1.6-1.4-13.1-5.4-15.9-5.6-.9-.1.9-.9 3.9-2l5.5-1.9-5 .5c-2.7.3-6.3 1-8 1.5-4.5 1.4-20.8 6.1-22.3 6.4-.6.1-3.1 2.2-5.5 4.5-2.3 2.4-5.4 4.9-6.8 5.7-1.5.7-4.3 3.7-6.3 6.6-2 2.9-5.2 7.3-7 9.8-1.9 2.4-3.4 4.7-3.3 5 0 .3-1 2.5-2.3 5-1.3 2.5-2.4 4.7-2.5 5 0 .3-1.3 2.3-2.7 4.6-1.5 2.3-3.2 6.1-3.8 8.5-.7 2.4-2.1 6.2-3.2 8.4-2.7 5.6-2.9 6.8-3.2 17.7-.2 7.6 1.4 21.3 2.4 21.3.1 0 .3.9.5 2 1.4 7.8 2.9 14.2 3.6 15.1.5.6.6 1.4.2 1.7-.3.4-.1.7.5.7.7 0 1.1.3 1 .7-.1.5.5 2.4 1.4 4.3.8 1.9 2.1 5.3 2.8 7.4.7 2.2 2.5 6.1 4 8.6s4.2 8.4 6.1 13c1.8 4.7 3.7 8.6 4.1 8.8.4.2.8.8.8 1.3s2.8 5.1 6.1 10.1c5.5 8.1 10.1 13.2 29.9 33.4 2.7 2.8 6.2 5.7 7.7 6.4 1.6.8 4.1 2.3 5.6 3.3 1.6 1.1 4.5 2.1 6.5 2.4 6.6.7 8.1 1.3 10.6 4l2.4 2.6 11.9-.7c6.5-.4 13.2-.7 14.8-.6 22.1 1.3 48.7-1.1 56.7-5.2 2.1-1 5.8-1.8 8.3-1.8 2.6 0 5.4-.4 6.3-.9 3.3-1.7 13.9-12.6 15.6-15.9.9-1.8 3.4-4.5 5.4-6 4.4-3.1 6.4-4.8 10-8.1 1.4-1.3 4-2.5 5.6-2.6 1.7-.1 4.5-.8 6.1-1.5 1.7-.7 3.9-1.5 4.9-1.7 1.7-.3 10.9-4.4 17.1-7.6 1.1-.6 3.4-1.7 5-2.5 1.7-.8 3.9-2.3 5.1-3.3 1.1-1.1 4.7-3.2 8-4.8 3.2-1.6 7.3-4.1 8.9-5.5 1.7-1.5 5.1-4.5 7.7-6.7 5.5-4.6 15.2-17.1 19.1-24.4 1.4-2.8 4-9.3 5.7-14.6 1.6-5.2 4.3-12 6-15 1.6-3 3-6.3 3-7.3 0-2.6 1.4-1.1 1.6 1.7.2 4.8 1.6 12.3 2.5 13.3.5.6 1.1 2.6 1.3 4.5.3 1.9.8 5.6 1.1 8.4.4 2.7 1.4 6.6 2.3 8.5.9 1.9 1.7 4.3 1.8 5.2.1 1 .3 2 .4 2.3.1.3.3.8.4 1.2.1.5.5 1.3.9 2s0 1.6-1 2.2c-1 .6-1.2 1.1-.5 1.1 2.4 0 17.2 17.6 17.2 20.5 0 .3-1.8 2.3-4 4.5-4.5 4.4-12.2 15.8-11.5 17 .3.5.2 1-.2 1.2-.9.3-5 11.9-5.7 15.8-.3 1.4-.5 2.5-.6 2.5-.8 0-2.2 12.6-2.4 21.5-.2 7.3.2 10.6 1.7 16.5 1.2 4.4 7.8 15.5 12.8 21.3 6.9 8.3 8.9 9.1 19.9 8.6 12.2-.6 13.5-.9 24.2-6.9 11.4-6.3 16.7-11.2 23.6-22 2.5-3.9 4.9-7.2 5.3-7.3.5-.2.9-1 .9-1.8 0-2.3 1.5-1.6 4.4 1.8 1.4 1.8 6.9 7.6 12.1 13 5.2 5.4 9.5 10.3 9.5 10.9 0 .5.5.7 1 .4.6-.3 1 0 1 .9 0 .8.6 1.6 1.3 1.9 1.5.5-10.9 19.1-13.8 20.6-5.6 2.8-11.4 5-14 5.3-2.5.2-2.9 0-2.7-1.7.2-1.1 1-2.4 1.8-2.8 1.7-1 1.8-2.9.3-4.4-.9-.9-1.7-.9-3.3 0-4.5 2.6-5.4 3.8-4.9 6.9.3 1.9.1 2.8-.6 2.4-1.9-1.2-2.2 1.3-.4 3.4 2.5 3 6.4 4.5 7.5 2.8.5-.9.8-.5 1 1.2.2 2.7.4 4.9.8 6.5.1.5.2 1.3.1 1.7 0 .5.3.8.8.8.6 0 2 3.1 3.2 6.9 2 6 2.1 7.2.8 8.7-.7.9-1.4 3.2-1.5 5.1-.2 2.7.5 4.1 4.2 7.8 2.4 2.5 4.4 5.1 4.4 5.9 0 .7.9 2.1 2 3.1 1.6 1.5 2.2 1.6 3.5.5.9-.8 4.4-1.5 7.8-1.6 3.4-.1 6.2-.3 6.2-.4 0-.1 1-.3 2.3-.6 3.2-.6 15.2-6.6 15.2-7.6 0-.4.6-.8 1.4-.8 3.9 0 15.5-17.8 19.2-29.5.2-.6.9-2.7 1.6-4.7l1.3-3.7 8.1 8.3c4.5 4.6 10 9.6 12.2 11 3.7 2.3 4 2.8 3.3 5.3-.9 3.3.9 12.9 3.7 19.3 1 2.5 2.6 7 3.5 10 1.8 6.1 7.8 15.2 15.5 23.4 5.8 6.4 7.3 7.2 13.2 8.1 2.5.3 6.1.8 8.1 1.1 2 .2 5.4.7 7.5 1.1 2.2.3 8.6.5 14.3.5 8.7-.2 11-.6 15-2.6 2.5-1.2 6.2-3.1 8.1-4 8.2-4 12.2-7.1 14.9-11.8 1.1-2 1.7-3.8 1.4-4.1-.3-.3.9-.5 2.6-.5 2.7.1 7.1-2.4 7.1-4.1 0-.3-2.5-.6-5.6-.6-5.1 0-5.8-.3-8.9-3.7-2.4-2.6-3.5-5-4.1-8.5-.3-2.6-1.4-8.9-2.4-13.8-1.3-6.9-1.7-13.2-1.4-27 .3-23.6.9-28.1 3.9-31.1 2.6-2.6 4.9-3.5 5-1.9.1 1.5 5.6 12.5 8 16 1.1 1.6 3.1 3.9 4.4 5 1.3 1.1 3.5 3 5 4.2 1.4 1.3 3.4 2.3 4.3 2.3.9 0 1.9.4 2.2.9.5.7 3.2 1.6 12.1 3.8 3.6.9 23.5 1 23.5.1 0-.4.3-.7.8-.6 1.9.4 6.2-2.5 12.2-8.1 3.6-3.3 7-6.1 7.7-6.1 2.2 0 9.2-12.1 9.8-17 0-.3.3-1 .7-1.5.8-1.3.8-19.6 0-21-.3-.5-.7-3-.8-5.5-.2-6.4-3.9-14.5-8.4-18-2.1-1.7-4.2-3-4.7-3-.6 0-1.8-.9-2.8-2-1.8-2-1.7-2 1.1-2.1 6.7-.1 10.8-.8 13.3-2 3.4-1.8 12-7.7 14.5-10 1.1-1.1 4.9-3.4 8.5-5.1 5.9-2.9 13.1-8.6 13.1-10.2 0-1.3 4.6-5.4 9-8.1 4.6-2.9 6.3-4.4 11.5-11 3.4-4.2 8.7-9.5 9.6-9.5 1.7 0 11.9-12.4 11.9-14.5 0-.3.5-1.1 1-1.8.6-.7 2-2.3 3.1-3.7 3.3-3.8 5-8.5 7.4-20 .1-.8.8-3.5 1.5-6 .6-2.4 1.4-6.7 1.6-9.5.3-4.5 1.1-9.5 2.1-13.5.2-.8.4-6.9.4-13.5.1-9.2-.3-13.7-1.9-19-1.7-6.3-9.3-24.4-11.2-27-.4-.6-1.5-3.5-2.5-6.5s-2.2-6.1-2.8-6.8c-.5-.6-.6-1.2-.2-1.2.5 0 .1-.8-.8-1.8-.8-.9-1.6-2-1.6-2.5 0-.4-.8-2.1-1.6-3.7-1.2-2.3-1.3-3.5-.5-5 1.4-2.6 3.5-1.5 11.1 5.7 3.3 3.1 6.5 5.3 7.8 5.3 1.2 0 3 .4 4 1 2.6 1.3 15.4 2 16.8.9.6-.6 2.4-.8 4-.6 2.9.5 12.3-3.8 12.3-5.5 0-1.1 3.6-6 7.7-10.6 1.8-2 3.1-3.8 2.8-4-.6-.6 2.1-7.3 7.4-18.2 2.5-5.2 4.6-10 4.7-10.7.1-.6.5-3.1.9-5.5s.8-9.5 1-15.8c.2-10.2 0-12.1-2.1-16.6-2.8-6.2-4.5-7.7-8.7-7.7-1.7-.1-3.5-.6-3.9-1.2-.5-.6-.8-.5-.8.3 0 .7-.4 1.1-.9.8-.5-.3-1.3 0-1.9.7-1.5 1.9.4 5.7 2.8 5.7 1.2 0 1.9.4 1.6.9-.4.5.3.7 1.3.4 1.4-.3 2.1.2 2.6 1.9.4 1.2 1.2 2.6 1.8 3 1.2.7 1.7 17.7.6 20.5-.5 1-.8-1.2-.8-5.1l-.1-7-2.6 5.1c-3.8 7.8-14.4 18.3-14.4 14.4 0-1.6-3.4-1.8-5.8-.2-2.2 1.4-2.6 1.2-7.6-4-3.9-4-5.6-6.9-7-11.4-2.1-6.6-2.5-8.3-2.6-9 0-.3-.6-1.8-1.4-3.3-.7-1.5-2.1-6.1-3.1-10.2-.9-4.1-1.9-8.4-2.1-9.5-.3-1.1-.7-2.9-.9-4.1-.3-1.1-1.4-4.9-2.5-8.3-1.1-3.5-1.8-6.7-1.5-7.1.3-.5.1-1-.4-1.2-.5-.1-1.2-1.7-1.5-3.3-.8-4.6-1.3-6.6-3-11.3-.8-2.3-1.3-4.2-1.1-4.2.2 0-1-2.7-2.6-6s-2.9-6.3-2.9-6.5c0-.9-8.8-18.8-11.6-23.5-1.5-2.5-2.7-4.9-2.8-5.5-.3-1.5-5.4-9.2-6.6-10-.5-.3-2.2-3.1-3.7-6.1-1.6-3.1-3.2-6.4-3.8-7.5-.5-1-1.4-1.9-1.8-1.9-1.1 0-7.7-6.5-7.7-7.5 0-1.6-14.7-14.7-19.1-17-5.2-2.7-7.4-4.9-6.4-6.6.4-.6.9-5.2 1.1-10.3.2-5 .6-10.1.9-11.4.3-1.2.7-3.2 1-4.5.9-3.8 2.4-12 2.9-16.2.3-2.2.8-5.1 1.2-6.5.3-1.4.8-5.2.9-8.5.7-10.8 1.3-16.9 2.4-21.6 1.3-5.6 1.3-39.5.1-44.1-.5-1.8-1.2-6.9-1.6-11.3-.9-13.1-2.2-18.3-5-20.6-1.8-1.5-4-6.4-4.9-10.9-1.4-6.9-3.8-10.8-7.5-12.5-2-.9-4-1.5-4.6-1.4-.5.1-2.2-.3-3.7-.9-4.1-1.7-6-1.5-9.9 1zM383 279.7c0 1.7-5.1 10.3-6.1 10.3-1.1 0 .7-6.5 2.6-9.8 1.9-3.1 3.5-3.4 3.5-.5zm-24.3 60.6c-.5 2.6-1.4 4.7-1.8 4.7-.5 0-.4-1.2.2-2.8.6-1.5 1-2.9 1-3.2-.1-.9 1.1-4.2 1.4-3.8.2.2-.2 2.4-.8 5.1zm-3.3 12.1c-.3 1.5-.8 2.5-1.1 2.3-.2-.3-.1-1.7.3-3.1.3-1.5.8-2.5 1.1-2.3.2.3.1 1.7-.3 3.1zm-3.6 20c-.1 1.9-.5 3.3-.8 3.1-.7-.4-.1-6.5.6-6.5.3 0 .4 1.5.2 3.4zm400 4.3c.7 5.1.6 5.8-.2 6.1-.6.1-1.1-1.6-1.3-3.8-.3-3.8 1-5.9 1.5-2.3zM350 384.1c-1.7 6.9-2.3 5.6-.8-1.6.6-3.3 1.3-5.4 1.6-4.7.2.7-.2 3.5-.8 6.3zm403.6 8c1 7.5 1.7 23.4 1 22.8-.3-.3-.8-3.2-1.1-6.5-.3-3.2-.8-7-1-8.4-1.3-6-1.7-14.5-.6-13.4.6.6 1.4 3 1.7 5.5zM349 390.4c0 .3-.4.8-1 1.1-.5.3-1 .1-1-.4 0-.6.5-1.1 1-1.1.6 0 1 .2 1 .4zm401.4 50.2c.3.8.2 1.2-.4.9-.6-.3-1-1-1-1.6 0-1.4.7-1.1 1.4.7zm.4 7c-.3 2.7-.4 2.6-.9-.8-.3-2.2-.1-3.4.4-2.9s.7 2.1.5 3.7zm1.2 5.4c0 1.1-.2 2-.4 2s-.6-.9-.9-2c-.3-1.1-.1-2 .4-2s.9.9.9 2zM68.9 481.3c-3.1 2.2-5.9 3.5-5.9 2.7 0-.6 1-1.5 2.3-2 2.1-.8 4.5-1.3 3.6-.7zm30.6 1.7l2 .9h-2c-1.1 0-2.7-.4-3.5-.9-1.3-.9-1.3-1 0-.9.8 0 2.4.4 3.5.9zm-10 2.9c-.3.6-1.4 1.1-2.5 1.1-2.1 0-26.5 5.5-29.5 6.6-1.7.7-1.8.6-.7-.8.7-.9 3.2-1.9 5.5-2.3 2.3-.3 5.8-1.7 7.7-2.9 2.9-1.9 5-2.4 11.8-2.5 5.7-.1 8.2.1 7.7.8zm29.5 8.4c5.9 4.3 11.5 11 16 19.5 1.4 2.6 3.3 5.9 4.3 7.3 2.7 4.1 5.8 14.5 6.1 21 .5 9.7-1.6 6.5-4.6-7.2-2.7-12.2-4.1-15.7-8.2-21.1-10.9-14.2-18.2-22.2-21.3-23.2-1.1-.4-2.7-1.4-3.5-2.3-1.1-1.4-.9-1.4 2.1.1 1.8 1 5.9 3.6 9.1 5.9zm-78.9 17.8c-2.5 5-5.8 11.5-7.3 14.4-2.9 5.7-5 7.9-4 4.3.6-2.5 5.1-9.9 6.7-11 .5-.4.6-.8.1-.8s-.1-.9.9-2 1.5-2 1.1-2c-.3 0 .1-1.5 1-3.3 1.7-3.2 5.3-8.7 5.8-8.7.2 0-1.8 4.1-4.3 9.1zm719 3.4c.1 2.2-.6 7.1-1.6 11-.9 3.8-1.9 8-2.1 9.2-.2 1.2-.9 3.2-1.4 4.5-.8 1.7-.9.5-.5-4.6.3-3.8.7-7.1.9-7.5.2-.3.7-2.4 1.1-4.6.4-2.2.8-4.7 1-5.5.2-.8.4-3.1.4-5 .1-4.7 1.9-2.6 2.2 2.5zM345.3 529c.3 1.1.2 2-.3 2-.4 0-1-1.1-1.2-2.5-.6-2.9.7-2.5 1.5.5zm.4 6.2c-.3.7-.5.2-.5-1.2s.2-1.9.5-1.3c.2.7.2 1.9 0 2.5zm3.9 23.3c-.3.5-.5.1-.5-1.1-.1-1.1-.5-2.4-1-3-.5-.5-1.2-4.7-1.4-9.4l-.5-8.5 1.9 10.5c1 5.8 1.7 10.9 1.5 11.5zM742 555c-1.7 6.8-6.4 18-7.4 18-.3 0 .6-2.6 1.8-5.8 1.2-3.1 3.3-9 4.5-13.1 1.2-4 2.4-7.1 2.6-6.9.2.2-.5 3.7-1.5 7.8zm9.4-3.3c-.4 1.6-1.1 3.5-1.5 4.3-.6.9-.7.4-.2-1.5.3-1.6.6-3.5.6-4.2 0-.7.4-1.3.9-1.3s.5 1.2.2 2.7zm-7.3 21c-1.2 2-1.4 1.4-.5-1.2.4-.9.9-1.4 1.1-1.1.3.2 0 1.3-.6 2.3zm60.9 28.5c-1.3 5.8-4.4 11.8-6.6 13.1-.8.4-1.4 1.6-1.4 2.5 0 1-1.1 2.9-2.5 4.4-1.4 1.5-2.5 3.1-2.5 3.6s-1.2 2-2.8 3.3c-4.2 3.7-10.2 8.1-10.2 7.5 0-1.1 12.4-20.2 14-21.6.5-.4 3.1-4.3 8.2-11.9 1-1.4 2.3-3.6 3-4.9 1.8-3.5 2.1-1.8.8 4zm-426.4 28c.8 1.3-.9 2.9-2.1 2-.6-.4-1.9-1.7-2.9-3l-1.9-2.2 3.1 1.1c1.8.6 3.5 1.5 3.8 2.1zm396.8 12.3c-.9 1.4-1.8 2.5-2.1 2.5-.5 0 .5-1.8 2-3.8 1.7-2.2 1.8-1.3.1 1.3zm-405.8 6.3c-1.7 1.6-1.8 1.6-.5-.5.7-1.2 1.5-2 1.8-1.7.3.2-.3 1.2-1.3 2.2zm-1.6 2.5c0 .2-.9 1.2-2 2.2-2.4 2.1-2.7 1.4-.4-.9 1.5-1.5 2.4-2 2.4-1.3zm359 27.5c0 1.2-9 5.2-12.8 5.7-4.5.6-3.1-1.2 1.6-2 2-.3 5.3-1.5 7.2-2.5 4.1-2.3 4-2.2 4-1.2zM678 691c0 1.6-5 6-6.8 6-1.2 0-1-.7.9-2.7 3.8-4.3 5.9-5.5 5.9-3.3zm-222.3 22.1c9.5 10 12.3 13.3 12.3 14.4 0 .5-1.9-1-4.2-3.5-2.3-2.5-7.1-7.7-10.8-11.5-3.6-3.9-7-7.7-7.5-8.5-1.6-2.6 3.8 2.2 10.2 9.1zM648.2 755c1.2 1.9 3.9 5.2 6.2 7.2 4.9 4.5 4.5 5.6-.9 2.1-4.3-2.7-8.5-7.9-13-15.8l-2.8-5 4.2 4c2.3 2.2 5.2 5.6 6.3 7.5zm-155 37.2c-2 3.2-7 8.3-12.2 12.3l-2.5 2 2.5-2.9c1.4-1.6 4.4-4.7 6.6-7 2.3-2.2 4.7-5.2 5.4-6.4.6-1.3 1.4-2.1 1.7-1.8.3.3-.4 2-1.5 3.8z"/></svg>